<svg class="railroad-diagram" height="152" viewBox="0 0 225.0 152" width="225.0" xmlns="http://www.w3.org/2000/svg" xmlns:xlink="http://www.w3.org/1999/xlink">
<style>
.railroad-diagram path { stroke: #333; stroke-width: 2; fill: none; }
.railroad-diagram text { fill: #111; font: 14px monospace; text-anchor: middle; }
.railroad-diagram rect { fill: #fdfdfd; stroke: #333; }
.railroad-diagram .terminal rect { fill: #e8f2ea; }
.railroad-diagram .non-terminal rect { fill: #f2f2f2; }
</style>
<rect width="100%" height="100%" fill="white" />

<g transform="translate(.5 .5)">
<g>
<path d="M20 21v20m10 -20v20m-10 -10h20" /></g><g>
<path d="M40 31h0.0" /><path d="M185.0 31h0.0" /><path d="M40.0 31h20" /><g class="terminal ">
<path d="M60.0 31h17.0" /><path d="M148.0 31h17.0" /><rect height="22" rx="10" ry="10" width="71" x="77" y="20"></rect><text x="112.5" y="35">parent</text></g><path d="M165.0 31h20" /><path d="M40.0 31a10 10 0 0 1 10 10v10a10 10 0 0 0 10 10" /><g class="terminal ">
<path d="M60.0 61h21.25" /><path d="M143.75 61h21.25" /><rect height="22" rx="10" ry="10" width="62.5" x="81.25" y="50"></rect><text x="112.5" y="65">child</text></g><path d="M165.0 61a10 10 0 0 0 10 -10v-10a10 10 0 0 1 10 -10" /><path d="M40.0 31a10 10 0 0 1 10 10v40a10 10 0 0 0 10 10" /><g class="terminal ">
<path d="M60.0 91h8.5" /><path d="M156.5 91h8.5" /><rect height="22" rx="10" ry="10" width="88" x="68.5" y="80"></rect><text x="112.5" y="95">ancestor</text></g><path d="M165.0 91a10 10 0 0 0 10 -10v-40a10 10 0 0 1 10 -10" /><path d="M40.0 31a10 10 0 0 1 10 10v70a10 10 0 0 0 10 10" /><g class="terminal ">
<path d="M60.0 121h0.0" /><path d="M165.0 121h0.0" /><rect height="22" rx="10" ry="10" width="105" x="60" y="110"></rect><text x="112.5" y="125">descendant</text></g><path d="M165.0 121a10 10 0 0 0 10 -10v-70a10 10 0 0 1 10 -10" /></g><path d="M 185.0 31 h 20 m -10 -10 v 20 m 10 -20 v 20"></path></g></svg>