<svg class="railroad-diagram" height="110" viewBox="0 0 635.0 110" width="635.0" xmlns="http://www.w3.org/2000/svg" xmlns:xlink="http://www.w3.org/1999/xlink">
<style>
.railroad-diagram path { stroke: #333; stroke-width: 2; fill: none; }
.railroad-diagram text { fill: #111; font: 14px monospace; text-anchor: middle; }
.railroad-diagram rect { fill: #fdfdfd; stroke: #333; }
.railroad-diagram .terminal rect { fill: #e8f2ea; }
.railroad-diagram .non-terminal rect { fill: #f2f2f2; }
</style>
<rect width="100%" height="100%" fill="white" />

<g transform="translate(.5 .5)">
<g>
<path d="M20 21v20m10 -20v20m-10 -10h20" /></g><g>
<path d="M40 31h0.0" /><path d="M595.0 31h0.0" /><path d="M40.0 31h20" /><g>
<path d="M60.0 31h155.25" /><path d="M419.75 31h155.25" /><g class="terminal ">
<path d="M215.25 31h0.0" /><path d="M294.75 31h0.0" /><rect height="22" rx="10" ry="10" width="79.5" x="215.25" y="20"></rect><text x="255" y="35">EXCLUDE</text></g><path d="M294.75 31h10" /><path d="M304.75 31h10" /><g class="non-terminal ">
<path d="M314.75 31h0.0" /><path d="M419.75 31h0.0" /><rect height="22" width="105" x="314.75" y="20"></rect><text x="367.25" y="35">field_name</text></g></g><path d="M575.0 31h20" /><path d="M40.0 31a10 10 0 0 1 10 10v19a10 10 0 0 0 10 10" /><g>
<path d="M60.0 70h0.0" /><path d="M575.0 70h0.0" /><g class="terminal ">
<path d="M60.0 70h0.0" /><path d="M139.5 70h0.0" /><rect height="22" rx="10" ry="10" width="79.5" x="60" y="59"></rect><text x="99.75" y="74">EXCLUDE</text></g><path d="M139.5 70h10" /><path d="M149.5 70h10" /><g class="terminal ">
<path d="M159.5 70h0.0" /><path d="M188.0 70h0.0" /><rect height="22" rx="10" ry="10" width="28.5" x="159.5" y="59"></rect><text x="173.75" y="74">(</text></g><path d="M188.0 70h10" /><path d="M198.0 70h10" /><g class="non-terminal ">
<path d="M208.0 70h0.0" /><path d="M313.0 70h0.0" /><rect height="22" width="105" x="208" y="59"></rect><text x="260.5" y="74">field_name</text></g><path d="M313.0 70h10" /><g>
<path d="M323.0 70h0.0" /><path d="M536.5 70h0.0" /><path d="M323.0 70a10 10 0 0 0 10 -10v0a10 10 0 0 1 10 -10" /><g>
<path d="M343.0 50h173.5" /></g><path d="M516.5 50a10 10 0 0 1 10 10v0a10 10 0 0 0 10 10" /><path d="M323.0 70h20" /><g>
<path d="M343.0 70h0.0" /><path d="M516.5 70h0.0" /><path d="M343.0 70h10" /><g>
<path d="M353.0 70h0.0" /><path d="M506.5 70h0.0" /><g class="terminal ">
<path d="M353.0 70h0.0" /><path d="M381.5 70h0.0" /><rect height="22" rx="10" ry="10" width="28.5" x="353" y="59"></rect><text x="367.25" y="74">,</text></g><path d="M381.5 70h10" /><path d="M391.5 70h10" /><g class="non-terminal ">
<path d="M401.5 70h0.0" /><path d="M506.5 70h0.0" /><rect height="22" width="105" x="401.5" y="59"></rect><text x="454" y="74">field_name</text></g></g><path d="M506.5 70h10" /><path d="M353.0 70a10 10 0 0 0 -10 10v0a10 10 0 0 0 10 10" /><g>
<path d="M353.0 90h153.5" /></g><path d="M506.5 90a10 10 0 0 0 10 -10v0a10 10 0 0 0 -10 -10" /></g><path d="M516.5 70h20" /></g><path d="M536.5 70h10" /><g class="terminal ">
<path d="M546.5 70h0.0" /><path d="M575.0 70h0.0" /><rect height="22" rx="10" ry="10" width="28.5" x="546.5" y="59"></rect><text x="560.75" y="74">)</text></g></g><path d="M575.0 70a10 10 0 0 0 10 -10v-19a10 10 0 0 1 10 -10" /></g><path d="M 595.0 31 h 20 m -10 -10 v 20 m 10 -20 v 20"></path></g></svg>