<svg class="railroad-diagram" height="80" viewBox="0 0 403.0 80" width="403.0" xmlns="http://www.w3.org/2000/svg" xmlns:xlink="http://www.w3.org/1999/xlink">
<style>
.railroad-diagram path { stroke: #333; stroke-width: 2; fill: none; }
.railroad-diagram text { fill: #111; font: 14px monospace; text-anchor: middle; }
.railroad-diagram rect { fill: #fdfdfd; stroke: #333; }
.railroad-diagram .terminal rect { fill: #e8f2ea; }
.railroad-diagram .non-terminal rect { fill: #f2f2f2; }
</style>
<rect width="100%" height="100%" fill="white" />

<g transform="translate(.5 .5)">
<g>
<path d="M20 30v20m10 -20v20m-10 -10h20" /></g><path d="M40 40h10" /><g>
<path d="M50 40h0.0" /><path d="M353.0 40h0.0" /><g class="non-terminal ">
<path d="M50.0 40h0.0" /><path d="M138.0 40h0.0" /><rect height="22" width="88" x="50" y="29"></rect><text x="94" y="44">and_expr</text></g><path d="M138.0 40h10" /><g>
<path d="M148.0 40h0.0" /><path d="M353.0 40h0.0" /><path d="M148.0 40a10 10 0 0 0 10 -10v0a10 10 0 0 1 10 -10" /><g>
<path d="M168.0 20h165.0" /></g><path d="M333.0 20a10 10 0 0 1 10 10v0a10 10 0 0 0 10 10" /><path d="M148.0 40h20" /><g>
<path d="M168.0 40h0.0" /><path d="M333.0 40h0.0" /><path d="M168.0 40h10" /><g>
<path d="M178.0 40h0.0" /><path d="M323.0 40h0.0" /><g class="terminal ">
<path d="M178.0 40h0.0" /><path d="M215.0 40h0.0" /><rect height="22" rx="10" ry="10" width="37" x="178" y="29"></rect><text x="196.5" y="44">OR</text></g><path d="M215.0 40h10" /><path d="M225.0 40h10" /><g class="non-terminal ">
<path d="M235.0 40h0.0" /><path d="M323.0 40h0.0" /><rect height="22" width="88" x="235" y="29"></rect><text x="279" y="44">and_expr</text></g></g><path d="M323.0 40h10" /><path d="M178.0 40a10 10 0 0 0 -10 10v0a10 10 0 0 0 10 10" /><g>
<path d="M178.0 60h145.0" /></g><path d="M323.0 60a10 10 0 0 0 10 -10v0a10 10 0 0 0 -10 -10" /></g><path d="M333.0 40h20" /></g></g><path d="M353.0 40h10" /><path d="M 363.0 40 h 20 m -10 -10 v 20 m 10 -20 v 20"></path></g></svg>