<svg class="railroad-diagram" height="122" viewBox="0 0 390.0 122" width="390.0" xmlns="http://www.w3.org/2000/svg" xmlns:xlink="http://www.w3.org/1999/xlink">
<style>
.railroad-diagram path { stroke: #333; stroke-width: 2; fill: none; }
.railroad-diagram text { fill: #111; font: 14px monospace; text-anchor: middle; }
.railroad-diagram rect { fill: #fdfdfd; stroke: #333; }
.railroad-diagram .terminal rect { fill: #e8f2ea; }
.railroad-diagram .non-terminal rect { fill: #f2f2f2; }
</style>
<rect width="100%" height="100%" fill="white" />

<g transform="translate(.5 .5)">
<g>
<path d="M20 21v20m10 -20v20m-10 -10h20" /></g><g>
<path d="M40 31h0.0" /><path d="M350.0 31h0.0" /><path d="M40.0 31h20" /><g class="non-terminal ">
<path d="M60.0 31h82.5" /><path d="M247.5 31h82.5" /><rect height="22" width="105" x="142.5" y="20"></rect><text x="195" y="35">field_name</text></g><path d="M330.0 31h20" /><path d="M40.0 31a10 10 0 0 1 10 10v10a10 10 0 0 0 10 10" /><g class="terminal ">
<path d="M60.0 61h82.5" /><path d="M247.5 61h82.5" /><rect height="22" rx="10" ry="10" width="105" x="142.5" y="50"></rect><text x="195" y="65">attributes</text></g><path d="M330.0 61a10 10 0 0 0 10 -10v-10a10 10 0 0 1 10 -10" /><path d="M40.0 31a10 10 0 0 1 10 10v40a10 10 0 0 0 10 10" /><g>
<path d="M60.0 91h0.0" /><path d="M330.0 91h0.0" /><g class="terminal ">
<path d="M60.0 91h0.0" /><path d="M165.0 91h0.0" /><rect height="22" rx="10" ry="10" width="105" x="60" y="80"></rect><text x="112.5" y="95">attributes</text></g><path d="M165.0 91h10" /><path d="M175.0 91h10" /><g class="terminal ">
<path d="M185.0 91h0.0" /><path d="M213.5 91h0.0" /><rect height="22" rx="10" ry="10" width="28.5" x="185" y="80"></rect><text x="199.25" y="95">.</text></g><path d="M213.5 91h10" /><path d="M223.5 91h10" /><g class="non-terminal ">
<path d="M233.5 91h0.0" /><path d="M330.0 91h0.0" /><rect height="22" width="96.5" x="233.5" y="80"></rect><text x="281.75" y="95">attr_name</text></g></g><path d="M330.0 91a10 10 0 0 0 10 -10v-40a10 10 0 0 1 10 -10" /></g><path d="M 350.0 31 h 20 m -10 -10 v 20 m 10 -20 v 20"></path></g></svg>