<svg class="railroad-diagram" height="62" viewBox="0 0 253.5 62" width="253.5" xmlns="http://www.w3.org/2000/svg" xmlns:xlink="http://www.w3.org/1999/xlink">
<style>
.railroad-diagram path { stroke: #333; stroke-width: 2; fill: none; }
.railroad-diagram text { fill: #111; font: 14px monospace; text-anchor: middle; }
.railroad-diagram rect { fill: #fdfdfd; stroke: #333; }
.railroad-diagram .terminal rect { fill: #e8f2ea; }
.railroad-diagram .non-terminal rect { fill: #f2f2f2; }
</style>
<rect width="100%" height="100%" fill="white" />

<g transform="translate(.5 .5)">
<g>
<path d="M20 21v20m10 -20v20m-10 -10h20" /></g><path d="M40 31h10" /><g>
<path d="M50 31h0.0" /><path d="M203.5 31h0.0" /><g class="terminal ">
<path d="M50.0 31h0.0" /><path d="M112.5 31h0.0" /><rect height="22" rx="10" ry="10" width="62.5" x="50" y="20"></rect><text x="81.25" y="35">LIMIT</text></g><path d="M112.5 31h10" /><path d="M122.5 31h10" /><g class="non-terminal ">
<path d="M132.5 31h0.0" /><path d="M203.5 31h0.0" /><rect height="22" width="71" x="132.5" y="20"></rect><text x="168" y="35">number</text></g></g><path d="M203.5 31h10" /><path d="M 213.5 31 h 20 m -10 -10 v 20 m 10 -20 v 20"></path></g></svg>