<svg class="railroad-diagram" height="71" viewBox="0 0 349.0 71" width="349.0" xmlns="http://www.w3.org/2000/svg" xmlns:xlink="http://www.w3.org/1999/xlink">
<style>
.railroad-diagram path { stroke: #333; stroke-width: 2; fill: none; }
.railroad-diagram text { fill: #111; font: 14px monospace; text-anchor: middle; }
.railroad-diagram rect { fill: #fdfdfd; stroke: #333; }
.railroad-diagram .terminal rect { fill: #e8f2ea; }
.railroad-diagram .non-terminal rect { fill: #f2f2f2; }
</style>
<rect width="100%" height="100%" fill="white" />

<g transform="translate(.5 .5)">
<g>
<path d="M20 30v20m10 -20v20m-10 -10h20" /></g><path d="M40 40h10" /><g>
<path d="M50 40h0.0" /><path d="M299.0 40h0.0" /><g>
<path d="M50.0 40h0.0" /><path d="M192.5 40h0.0" /><path d="M50.0 40a10 10 0 0 0 10 -10v0a10 10 0 0 1 10 -10" /><g>
<path d="M70.0 20h102.5" /></g><path d="M172.5 20a10 10 0 0 1 10 10v0a10 10 0 0 0 10 10" /><path d="M50.0 40h20" /><g>
<path d="M70.0 40h0.0" /><path d="M172.5 40h0.0" /><g class="non-terminal ">
<path d="M70.0 40h0.0" /><path d="M124.0 40h0.0" /><rect height="22" width="54" x="70" y="29"></rect><text x="97" y="44">axis</text></g><path d="M124.0 40h10" /><path d="M134.0 40h10" /><g class="terminal ">
<path d="M144.0 40h0.0" /><path d="M172.5 40h0.0" /><rect height="22" rx="10" ry="10" width="28.5" x="144" y="29"></rect><text x="158.25" y="44">.</text></g></g><path d="M172.5 40h20" /></g><path d="M192.5 40h10" /><g class="non-terminal ">
<path d="M202.5 40h0.0" /><path d="M299.0 40h0.0" /><rect height="22" width="96.5" x="202.5" y="29"></rect><text x="250.75" y="44">field_ref</text></g></g><path d="M299.0 40h10" /><path d="M 309.0 40 h 20 m -10 -10 v 20 m 10 -20 v 20"></path></g></svg>