<svg class="railroad-diagram" height="101" viewBox="0 0 357.5 101" width="357.5" xmlns="http://www.w3.org/2000/svg" xmlns:xlink="http://www.w3.org/1999/xlink">
<style>
.railroad-diagram path { stroke: #333; stroke-width: 2; fill: none; }
.railroad-diagram text { fill: #111; font: 14px monospace; text-anchor: middle; }
.railroad-diagram rect { fill: #fdfdfd; stroke: #333; }
.railroad-diagram .terminal rect { fill: #e8f2ea; }
.railroad-diagram .non-terminal rect { fill: #f2f2f2; }
</style>
<rect width="100%" height="100%" fill="white" />

<g transform="translate(.5 .5)">
<g>
<path d="M20 30v20m10 -20v20m-10 -10h20" /></g><path d="M40 40h10" /><g>
<path d="M50 40h0.0" /><path d="M307.5 40h0.0" /><g class="non-terminal ">
<path d="M50.0 40h0.0" /><path d="M163.5 40h0.0" /><rect height="22" width="113.5" x="50" y="29"></rect><text x="106.75" y="44">order_field</text></g><path d="M163.5 40h10" /><g>
<path d="M173.5 40h0.0" /><path d="M307.5 40h0.0" /><path d="M173.5 40a10 10 0 0 0 10 -10v0a10 10 0 0 1 10 -10" /><g>
<path d="M193.5 20h94.0" /></g><path d="M287.5 20a10 10 0 0 1 10 10v0a10 10 0 0 0 10 10" /><path d="M173.5 40h20" /><g>
<path d="M193.5 40h0.0" /><path d="M287.5 40h0.0" /><path d="M193.5 40h20" /><g class="terminal ">
<path d="M213.5 40h4.25" /><path d="M263.25 40h4.25" /><rect height="22" rx="10" ry="10" width="45.5" x="217.75" y="29"></rect><text x="240.5" y="44">ASC</text></g><path d="M267.5 40h20" /><path d="M193.5 40a10 10 0 0 1 10 10v10a10 10 0 0 0 10 10" /><g class="terminal ">
<path d="M213.5 70h0.0" /><path d="M267.5 70h0.0" /><rect height="22" rx="10" ry="10" width="54" x="213.5" y="59"></rect><text x="240.5" y="74">DESC</text></g><path d="M267.5 70a10 10 0 0 0 10 -10v-10a10 10 0 0 1 10 -10" /></g><path d="M287.5 40h20" /></g></g><path d="M307.5 40h10" /><path d="M 317.5 40 h 20 m -10 -10 v 20 m 10 -20 v 20"></path></g></svg>