<svg class="railroad-diagram" height="80" viewBox="0 0 568.0 80" width="568.0" xmlns="http://www.w3.org/2000/svg" xmlns:xlink="http://www.w3.org/1999/xlink">
<style>
.railroad-diagram path { stroke: #333; stroke-width: 2; fill: none; }
.railroad-diagram text { fill: #111; font: 14px monospace; text-anchor: middle; }
.railroad-diagram rect { fill: #fdfdfd; stroke: #333; }
.railroad-diagram .terminal rect { fill: #e8f2ea; }
.railroad-diagram .non-terminal rect { fill: #f2f2f2; }
</style>
<rect width="100%" height="100%" fill="white" />

<g transform="translate(.5 .5)">
<g>
<path d="M20 30v20m10 -20v20m-10 -10h20" /></g><path d="M40 40h10" /><g>
<path d="M50 40h0.0" /><path d="M518.0 40h0.0" /><g class="terminal ">
<path d="M50.0 40h0.0" /><path d="M112.5 40h0.0" /><rect height="22" rx="10" ry="10" width="62.5" x="50" y="29"></rect><text x="81.25" y="44">ORDER</text></g><path d="M112.5 40h10" /><path d="M122.5 40h10" /><g class="terminal ">
<path d="M132.5 40h0.0" /><path d="M169.5 40h0.0" /><rect height="22" rx="10" ry="10" width="37" x="132.5" y="29"></rect><text x="151" y="44">BY</text></g><path d="M169.5 40h10" /><path d="M179.5 40h10" /><g class="non-terminal ">
<path d="M189.5 40h0.0" /><path d="M294.5 40h0.0" /><rect height="22" width="105" x="189.5" y="29"></rect><text x="242" y="44">order_item</text></g><path d="M294.5 40h10" /><g>
<path d="M304.5 40h0.0" /><path d="M518.0 40h0.0" /><path d="M304.5 40a10 10 0 0 0 10 -10v0a10 10 0 0 1 10 -10" /><g>
<path d="M324.5 20h173.5" /></g><path d="M498.0 20a10 10 0 0 1 10 10v0a10 10 0 0 0 10 10" /><path d="M304.5 40h20" /><g>
<path d="M324.5 40h0.0" /><path d="M498.0 40h0.0" /><path d="M324.5 40h10" /><g>
<path d="M334.5 40h0.0" /><path d="M488.0 40h0.0" /><g class="terminal ">
<path d="M334.5 40h0.0" /><path d="M363.0 40h0.0" /><rect height="22" rx="10" ry="10" width="28.5" x="334.5" y="29"></rect><text x="348.75" y="44">,</text></g><path d="M363.0 40h10" /><path d="M373.0 40h10" /><g class="non-terminal ">
<path d="M383.0 40h0.0" /><path d="M488.0 40h0.0" /><rect height="22" width="105" x="383" y="29"></rect><text x="435.5" y="44">order_item</text></g></g><path d="M488.0 40h10" /><path d="M334.5 40a10 10 0 0 0 -10 10v0a10 10 0 0 0 10 10" /><g>
<path d="M334.5 60h153.5" /></g><path d="M488.0 60a10 10 0 0 0 10 -10v0a10 10 0 0 0 -10 -10" /></g><path d="M498.0 40h20" /></g></g><path d="M518.0 40h10" /><path d="M 528.0 40 h 20 m -10 -10 v 20 m 10 -20 v 20"></path></g></svg>