<svg class="railroad-diagram" height="110" viewBox="0 0 643.5 110" width="643.5" xmlns="http://www.w3.org/2000/svg" xmlns:xlink="http://www.w3.org/1999/xlink">
<style>
.railroad-diagram path { stroke: #333; stroke-width: 2; fill: none; }
.railroad-diagram text { fill: #111; font: 14px monospace; text-anchor: middle; }
.railroad-diagram rect { fill: #fdfdfd; stroke: #333; }
.railroad-diagram .terminal rect { fill: #e8f2ea; }
.railroad-diagram .non-terminal rect { fill: #f2f2f2; }
</style>
<rect width="100%" height="100%" fill="white" />

<g transform="translate(.5 .5)">
<g>
<path d="M20 21v20m10 -20v20m-10 -10h20" /></g><g>
<path d="M40 31h0.0" /><path d="M603.5 31h0.0" /><path d="M40.0 31h20" /><g>
<path d="M60.0 31h131.0" /><path d="M452.5 31h131.0" /><g class="non-terminal ">
<path d="M191.0 31h0.0" /><path d="M279.0 31h0.0" /><rect height="22" width="88" x="191" y="20"></rect><text x="235" y="35">tag_name</text></g><path d="M279.0 31h10" /><path d="M289.0 31h10" /><g class="terminal ">
<path d="M299.0 31h0.0" /><path d="M327.5 31h0.0" /><rect height="22" rx="10" ry="10" width="28.5" x="299" y="20"></rect><text x="313.25" y="35">.</text></g><path d="M327.5 31h10" /><path d="M337.5 31h10" /><g class="non-terminal ">
<path d="M347.5 31h0.0" /><path d="M452.5 31h0.0" /><rect height="22" width="105" x="347.5" y="20"></rect><text x="400" y="35">field_name</text></g></g><path d="M583.5 31h20" /><path d="M40.0 31a10 10 0 0 1 10 10v19a10 10 0 0 0 10 10" /><g>
<path d="M60.0 70h0.0" /><path d="M583.5 70h0.0" /><g class="non-terminal ">
<path d="M60.0 70h0.0" /><path d="M148.0 70h0.0" /><rect height="22" width="88" x="60" y="59"></rect><text x="104" y="74">tag_name</text></g><path d="M148.0 70h10" /><path d="M158.0 70h10" /><g class="terminal ">
<path d="M168.0 70h0.0" /><path d="M196.5 70h0.0" /><rect height="22" rx="10" ry="10" width="28.5" x="168" y="59"></rect><text x="182.25" y="74">(</text></g><path d="M196.5 70h10" /><path d="M206.5 70h10" /><g class="non-terminal ">
<path d="M216.5 70h0.0" /><path d="M321.5 70h0.0" /><rect height="22" width="105" x="216.5" y="59"></rect><text x="269" y="74">field_name</text></g><path d="M321.5 70h10" /><g>
<path d="M331.5 70h0.0" /><path d="M545.0 70h0.0" /><path d="M331.5 70a10 10 0 0 0 10 -10v0a10 10 0 0 1 10 -10" /><g>
<path d="M351.5 50h173.5" /></g><path d="M525.0 50a10 10 0 0 1 10 10v0a10 10 0 0 0 10 10" /><path d="M331.5 70h20" /><g>
<path d="M351.5 70h0.0" /><path d="M525.0 70h0.0" /><path d="M351.5 70h10" /><g>
<path d="M361.5 70h0.0" /><path d="M515.0 70h0.0" /><g class="terminal ">
<path d="M361.5 70h0.0" /><path d="M390.0 70h0.0" /><rect height="22" rx="10" ry="10" width="28.5" x="361.5" y="59"></rect><text x="375.75" y="74">,</text></g><path d="M390.0 70h10" /><path d="M400.0 70h10" /><g class="non-terminal ">
<path d="M410.0 70h0.0" /><path d="M515.0 70h0.0" /><rect height="22" width="105" x="410" y="59"></rect><text x="462.5" y="74">field_name</text></g></g><path d="M515.0 70h10" /><path d="M361.5 70a10 10 0 0 0 -10 10v0a10 10 0 0 0 10 10" /><g>
<path d="M361.5 90h153.5" /></g><path d="M515.0 90a10 10 0 0 0 10 -10v0a10 10 0 0 0 -10 -10" /></g><path d="M525.0 70h20" /></g><path d="M545.0 70h10" /><g class="terminal ">
<path d="M555.0 70h0.0" /><path d="M583.5 70h0.0" /><rect height="22" rx="10" ry="10" width="28.5" x="555" y="59"></rect><text x="569.25" y="74">)</text></g></g><path d="M583.5 70a10 10 0 0 0 10 -10v-19a10 10 0 0 1 10 -10" /></g><path d="M 603.5 31 h 20 m -10 -10 v 20 m 10 -20 v 20"></path></g></svg>