<svg class="railroad-diagram" height="131" viewBox="0 0 347.5 131" width="347.5" xmlns="http://www.w3.org/2000/svg" xmlns:xlink="http://www.w3.org/1999/xlink">
<style>
.railroad-diagram path { stroke: #333; stroke-width: 2; fill: none; }
.railroad-diagram text { fill: #111; font: 14px monospace; text-anchor: middle; }
.railroad-diagram rect { fill: #fdfdfd; stroke: #333; }
.railroad-diagram .terminal rect { fill: #e8f2ea; }
.railroad-diagram .non-terminal rect { fill: #f2f2f2; }
</style>
<rect width="100%" height="100%" fill="white" />

<g transform="translate(.5 .5)">
<g>
<path d="M20 30v20m10 -20v20m-10 -10h20" /></g><path d="M40 40h10" /><g>
<path d="M50 40h0.0" /><path d="M297.5 40h0.0" /><g>
<path d="M50.0 40h0.0" /><path d="M229.0 40h0.0" /><path d="M50.0 40h20" /><g class="non-terminal ">
<path d="M70.0 40h8.5" /><path d="M200.5 40h8.5" /><rect height="22" width="122" x="78.5" y="29"></rect><text x="139.5" y="44">select_query</text></g><path d="M209.0 40h20" /><path d="M50.0 40a10 10 0 0 1 10 10v10a10 10 0 0 0 10 10" /><g class="non-terminal ">
<path d="M70.0 70h17.0" /><path d="M192.0 70h17.0" /><rect height="22" width="105" x="87" y="59"></rect><text x="139.5" y="74">show_query</text></g><path d="M209.0 70a10 10 0 0 0 10 -10v-10a10 10 0 0 1 10 -10" /><path d="M50.0 40a10 10 0 0 1 10 10v40a10 10 0 0 0 10 10" /><g class="non-terminal ">
<path d="M70.0 100h0.0" /><path d="M209.0 100h0.0" /><rect height="22" width="139" x="70" y="89"></rect><text x="139.5" y="104">describe_query</text></g><path d="M209.0 100a10 10 0 0 0 10 -10v-40a10 10 0 0 1 10 -10" /></g><g>
<path d="M229.0 40h0.0" /><path d="M297.5 40h0.0" /><path d="M229.0 40a10 10 0 0 0 10 -10v0a10 10 0 0 1 10 -10" /><g>
<path d="M249.0 20h28.5" /></g><path d="M277.5 20a10 10 0 0 1 10 10v0a10 10 0 0 0 10 10" /><path d="M229.0 40h20" /><g class="terminal ">
<path d="M249.0 40h0.0" /><path d="M277.5 40h0.0" /><rect height="22" rx="10" ry="10" width="28.5" x="249" y="29"></rect><text x="263.25" y="44">;</text></g><path d="M277.5 40h20" /></g></g><path d="M297.5 40h10" /><path d="M 307.5 40 h 20 m -10 -10 v 20 m 10 -20 v 20"></path></g></svg>