<svg class="railroad-diagram" height="92" viewBox="0 0 233.5 92" width="233.5" xmlns="http://www.w3.org/2000/svg" xmlns:xlink="http://www.w3.org/1999/xlink">
<style>
.railroad-diagram path { stroke: #333; stroke-width: 2; fill: none; }
.railroad-diagram text { fill: #111; font: 14px monospace; text-anchor: middle; }
.railroad-diagram rect { fill: #fdfdfd; stroke: #333; }
.railroad-diagram .terminal rect { fill: #e8f2ea; }
.railroad-diagram .non-terminal rect { fill: #f2f2f2; }
</style>
<rect width="100%" height="100%" fill="white" />

<g transform="translate(.5 .5)">
<g>
<path d="M20 21v20m10 -20v20m-10 -10h20" /></g><path d="M40 31h10" /><g>
<path d="M50 31h0.0" /><path d="M183.5 31h0.0" /><path d="M50.0 31h10" /><g class="non-terminal ">
<path d="M60.0 31h0.0" /><path d="M173.5 31h0.0" /><rect height="22" width="113.5" x="60" y="20"></rect><text x="116.75" y="35">select_item</text></g><path d="M173.5 31h10" /><path d="M60.0 31a10 10 0 0 0 -10 10v10a10 10 0 0 0 10 10" /><g class="terminal ">
<path d="M60.0 61h42.5" /><path d="M131.0 61h42.5" /><rect height="22" rx="10" ry="10" width="28.5" x="102.5" y="50"></rect><text x="116.75" y="65">,</text></g><path d="M173.5 61a10 10 0 0 0 10 -10v-10a10 10 0 0 0 -10 -10" /></g><path d="M183.5 31h10" /><path d="M 193.5 31 h 20 m -10 -10 v 20 m 10 -20 v 20"></path></g></svg>