<svg class="railroad-diagram" height="350" viewBox="0 0 780.5 350" width="780.5" xmlns="http://www.w3.org/2000/svg" xmlns:xlink="http://www.w3.org/1999/xlink">
<style>
.railroad-diagram path { stroke: #333; stroke-width: 2; fill: none; }
.railroad-diagram text { fill: #111; font: 14px monospace; text-anchor: middle; }
.railroad-diagram rect { fill: #fdfdfd; stroke: #333; }
.railroad-diagram .terminal rect { fill: #e8f2ea; }
.railroad-diagram .non-terminal rect { fill: #f2f2f2; }
</style>
<rect width="100%" height="100%" fill="white" />

<g transform="translate(.5 .5)">
<g>
<path d="M20 21v20m10 -20v20m-10 -10h20" /></g><g>
<path d="M40 31h0.0" /><path d="M740.5 31h0.0" /><path d="M40.0 31h20" /><g class="non-terminal ">
<path d="M60.0 31h286.25" /><path d="M434.25 31h286.25" /><rect height="22" width="88" x="346.25" y="20"></rect><text x="390.25" y="35">tag_only</text></g><path d="M720.5 31h20" /><path d="M40.0 31a10 10 0 0 1 10 10v10a10 10 0 0 0 10 10" /><g class="non-terminal ">
<path d="M60.0 61h256.5" /><path d="M464.0 61h256.5" /><rect height="22" width="147.5" x="316.5" y="50"></rect><text x="390.25" y="65">projected_field</text></g><path d="M720.5 61a10 10 0 0 0 10 -10v-10a10 10 0 0 1 10 -10" /><path d="M40.0 31a10 10 0 0 1 10 10v40a10 10 0 0 0 10 10" /><g>
<path d="M60.0 91h186.5" /><path d="M534.0 91h186.5" /><g class="terminal ">
<path d="M246.5 91h0.0" /><path d="M309.0 91h0.0" /><rect height="22" rx="10" ry="10" width="62.5" x="246.5" y="80"></rect><text x="277.75" y="95">COUNT</text></g><path d="M309.0 91h10" /><path d="M319.0 91h10" /><g class="terminal ">
<path d="M329.0 91h0.0" /><path d="M357.5 91h0.0" /><rect height="22" rx="10" ry="10" width="28.5" x="329" y="80"></rect><text x="343.25" y="95">(</text></g><path d="M357.5 91h10" /><g>
<path d="M367.5 91h0.0" /><path d="M495.5 91h0.0" /><path d="M367.5 91h20" /><g class="terminal ">
<path d="M387.5 91h29.75" /><path d="M445.75 91h29.75" /><rect height="22" rx="10" ry="10" width="28.5" x="417.25" y="80"></rect><text x="431.5" y="95">*</text></g><path d="M475.5 91h20" /><path d="M367.5 91a10 10 0 0 1 10 10v10a10 10 0 0 0 10 10" /><g class="non-terminal ">
<path d="M387.5 121h0.0" /><path d="M475.5 121h0.0" /><rect height="22" width="88" x="387.5" y="110"></rect><text x="431.5" y="125">tag_name</text></g><path d="M475.5 121a10 10 0 0 0 10 -10v-10a10 10 0 0 1 10 -10" /></g><path d="M495.5 91h10" /><g class="terminal ">
<path d="M505.5 91h0.0" /><path d="M534.0 91h0.0" /><rect height="22" rx="10" ry="10" width="28.5" x="505.5" y="80"></rect><text x="519.75" y="95">)</text></g></g><path d="M720.5 91a10 10 0 0 0 10 -10v-40a10 10 0 0 1 10 -10" /><path d="M40.0 31a10 10 0 0 1 10 10v100a10 10 0 0 0 10 10" /><g>
<path d="M60.0 151h209.25" /><path d="M511.25 151h209.25" /><g class="terminal ">
<path d="M269.25 151h0.0" /><path d="M365.75 151h0.0" /><rect height="22" rx="10" ry="10" width="96.5" x="269.25" y="140"></rect><text x="317.5" y="155">SUMMARIZE</text></g><path d="M365.75 151h10" /><path d="M375.75 151h10" /><g class="terminal ">
<path d="M385.75 151h0.0" /><path d="M414.25 151h0.0" /><rect height="22" rx="10" ry="10" width="28.5" x="385.75" y="140"></rect><text x="400" y="155">(</text></g><path d="M414.25 151h10" /><path d="M424.25 151h10" /><g class="terminal ">
<path d="M434.25 151h0.0" /><path d="M462.75 151h0.0" /><rect height="22" rx="10" ry="10" width="28.5" x="434.25" y="140"></rect><text x="448.5" y="155">*</text></g><path d="M462.75 151h10" /><path d="M472.75 151h10" /><g class="terminal ">
<path d="M482.75 151h0.0" /><path d="M511.25 151h0.0" /><rect height="22" rx="10" ry="10" width="28.5" x="482.75" y="140"></rect><text x="497" y="155">)</text></g></g><path d="M720.5 151a10 10 0 0 0 10 -10v-100a10 10 0 0 1 10 -10" /><path d="M40.0 31a10 10 0 0 1 10 10v130a10 10 0 0 0 10 10" /><g>
<path d="M60.0 181h188.0" /><path d="M532.5 181h188.0" /><g class="terminal ">
<path d="M248.0 181h0.0" /><path d="M310.5 181h0.0" /><rect height="22" rx="10" ry="10" width="62.5" x="248" y="170"></rect><text x="279.25" y="185">TFIDF</text></g><path d="M310.5 181h10" /><path d="M320.5 181h10" /><g class="terminal ">
<path d="M330.5 181h0.0" /><path d="M359.0 181h0.0" /><rect height="22" rx="10" ry="10" width="28.5" x="330.5" y="170"></rect><text x="344.75" y="185">(</text></g><path d="M359.0 181h10" /><path d="M369.0 181h10" /><g class="non-terminal ">
<path d="M379.0 181h0.0" /><path d="M484.0 181h0.0" /><rect height="22" width="105" x="379" y="170"></rect><text x="431.5" y="185">tfidf_args</text></g><path d="M484.0 181h10" /><path d="M494.0 181h10" /><g class="terminal ">
<path d="M504.0 181h0.0" /><path d="M532.5 181h0.0" /><rect height="22" rx="10" ry="10" width="28.5" x="504" y="170"></rect><text x="518.25" y="185">)</text></g></g><path d="M720.5 181a10 10 0 0 0 10 -10v-130a10 10 0 0 1 10 -10" /><path d="M40.0 31a10 10 0 0 1 10 10v160a10 10 0 0 0 10 10" /><g>
<path d="M60.0 211h0.0" /><path d="M720.5 211h0.0" /><g class="terminal ">
<path d="M60.0 211h0.0" /><path d="M114.0 211h0.0" /><rect height="22" rx="10" ry="10" width="54" x="60" y="200"></rect><text x="87" y="215">TRIM</text></g><path d="M114.0 211h10" /><path d="M124.0 211h10" /><g class="terminal ">
<path d="M134.0 211h0.0" /><path d="M162.5 211h0.0" /><rect height="22" rx="10" ry="10" width="28.5" x="134" y="200"></rect><text x="148.25" y="215">(</text></g><path d="M162.5 211h10" /><g>
<path d="M172.5 211h0.0" /><path d="M682.0 211h0.0" /><path d="M172.5 211h20" /><g>
<path d="M192.5 211h105.25" /><path d="M556.75 211h105.25" /><g class="terminal ">
<path d="M297.75 211h0.0" /><path d="M351.75 211h0.0" /><rect height="22" rx="10" ry="10" width="54" x="297.75" y="200"></rect><text x="324.75" y="215">TEXT</text></g><path d="M351.75 211h10" /><path d="M361.75 211h10" /><g class="terminal ">
<path d="M371.75 211h0.0" /><path d="M400.25 211h0.0" /><rect height="22" rx="10" ry="10" width="28.5" x="371.75" y="200"></rect><text x="386" y="215">(</text></g><path d="M400.25 211h10" /><path d="M410.25 211h10" /><g class="non-terminal ">
<path d="M420.25 211h0.0" /><path d="M508.25 211h0.0" /><rect height="22" width="88" x="420.25" y="200"></rect><text x="464.25" y="215">tag_name</text></g><path d="M508.25 211h10" /><path d="M518.25 211h10" /><g class="terminal ">
<path d="M528.25 211h0.0" /><path d="M556.75 211h0.0" /><rect height="22" rx="10" ry="10" width="28.5" x="528.25" y="200"></rect><text x="542.5" y="215">)</text></g></g><path d="M662.0 211h20" /><path d="M172.5 211a10 10 0 0 1 10 10v19a10 10 0 0 0 10 10" /><g>
<path d="M192.5 250h0.0" /><path d="M662.0 250h0.0" /><g class="terminal ">
<path d="M192.5 250h0.0" /><path d="M297.5 250h0.0" /><rect height="22" rx="10" ry="10" width="105" x="192.5" y="239"></rect><text x="245" y="254">INNER_HTML</text></g><path d="M297.5 250h10" /><path d="M307.5 250h10" /><g class="terminal ">
<path d="M317.5 250h0.0" /><path d="M346.0 250h0.0" /><rect height="22" rx="10" ry="10" width="28.5" x="317.5" y="239"></rect><text x="331.75" y="254">(</text></g><path d="M346.0 250h10" /><path d="M356.0 250h10" /><g class="non-terminal ">
<path d="M366.0 250h0.0" /><path d="M454.0 250h0.0" /><rect height="22" width="88" x="366" y="239"></rect><text x="410" y="254">tag_name</text></g><path d="M454.0 250h10" /><g>
<path d="M464.0 250h0.0" /><path d="M623.5 250h0.0" /><path d="M464.0 250a10 10 0 0 0 10 -10v0a10 10 0 0 1 10 -10" /><g>
<path d="M484.0 230h119.5" /></g><path d="M603.5 230a10 10 0 0 1 10 10v0a10 10 0 0 0 10 10" /><path d="M464.0 250h20" /><g>
<path d="M484.0 250h0.0" /><path d="M603.5 250h0.0" /><g class="terminal ">
<path d="M484.0 250h0.0" /><path d="M512.5 250h0.0" /><rect height="22" rx="10" ry="10" width="28.5" x="484" y="239"></rect><text x="498.25" y="254">,</text></g><path d="M512.5 250h10" /><path d="M522.5 250h10" /><g class="non-terminal ">
<path d="M532.5 250h0.0" /><path d="M603.5 250h0.0" /><rect height="22" width="71" x="532.5" y="239"></rect><text x="568" y="254">number</text></g></g><path d="M603.5 250h20" /></g><path d="M623.5 250h10" /><g class="terminal ">
<path d="M633.5 250h0.0" /><path d="M662.0 250h0.0" /><rect height="22" rx="10" ry="10" width="28.5" x="633.5" y="239"></rect><text x="647.75" y="254">)</text></g></g><path d="M662.0 250a10 10 0 0 0 10 -10v-19a10 10 0 0 1 10 -10" /></g><path d="M682.0 211h10" /><g class="terminal ">
<path d="M692.0 211h0.0" /><path d="M720.5 211h0.0" /><rect height="22" rx="10" ry="10" width="28.5" x="692" y="200"></rect><text x="706.25" y="215">)</text></g></g><path d="M720.5 211a10 10 0 0 0 10 -10v-160a10 10 0 0 1 10 -10" /><path d="M40.0 31a10 10 0 0 1 10 10v229a10 10 0 0 0 10 10" /><g>
<path d="M60.0 280h200.75" /><path d="M519.75 280h200.75" /><g class="terminal ">
<path d="M260.75 280h0.0" /><path d="M314.75 280h0.0" /><rect height="22" rx="10" ry="10" width="54" x="260.75" y="269"></rect><text x="287.75" y="284">TEXT</text></g><path d="M314.75 280h10" /><path d="M324.75 280h10" /><g class="terminal ">
<path d="M334.75 280h0.0" /><path d="M363.25 280h0.0" /><rect height="22" rx="10" ry="10" width="28.5" x="334.75" y="269"></rect><text x="349" y="284">(</text></g><path d="M363.25 280h10" /><path d="M373.25 280h10" /><g class="non-terminal ">
<path d="M383.25 280h0.0" /><path d="M471.25 280h0.0" /><rect height="22" width="88" x="383.25" y="269"></rect><text x="427.25" y="284">tag_name</text></g><path d="M471.25 280h10" /><path d="M481.25 280h10" /><g class="terminal ">
<path d="M491.25 280h0.0" /><path d="M519.75 280h0.0" /><rect height="22" rx="10" ry="10" width="28.5" x="491.25" y="269"></rect><text x="505.5" y="284">)</text></g></g><path d="M720.5 280a10 10 0 0 0 10 -10v-229a10 10 0 0 1 10 -10" /><path d="M40.0 31a10 10 0 0 1 10 10v268a10 10 0 0 0 10 10" /><g>
<path d="M60.0 319h95.5" /><path d="M625.0 319h95.5" /><g class="terminal ">
<path d="M155.5 319h0.0" /><path d="M260.5 319h0.0" /><rect height="22" rx="10" ry="10" width="105" x="155.5" y="308"></rect><text x="208" y="323">INNER_HTML</text></g><path d="M260.5 319h10" /><path d="M270.5 319h10" /><g class="terminal ">
<path d="M280.5 319h0.0" /><path d="M309.0 319h0.0" /><rect height="22" rx="10" ry="10" width="28.5" x="280.5" y="308"></rect><text x="294.75" y="323">(</text></g><path d="M309.0 319h10" /><path d="M319.0 319h10" /><g class="non-terminal ">
<path d="M329.0 319h0.0" /><path d="M417.0 319h0.0" /><rect height="22" width="88" x="329" y="308"></rect><text x="373" y="323">tag_name</text></g><path d="M417.0 319h10" /><g>
<path d="M427.0 319h0.0" /><path d="M586.5 319h0.0" /><path d="M427.0 319a10 10 0 0 0 10 -10v0a10 10 0 0 1 10 -10" /><g>
<path d="M447.0 299h119.5" /></g><path d="M566.5 299a10 10 0 0 1 10 10v0a10 10 0 0 0 10 10" /><path d="M427.0 319h20" /><g>
<path d="M447.0 319h0.0" /><path d="M566.5 319h0.0" /><g class="terminal ">
<path d="M447.0 319h0.0" /><path d="M475.5 319h0.0" /><rect height="22" rx="10" ry="10" width="28.5" x="447" y="308"></rect><text x="461.25" y="323">,</text></g><path d="M475.5 319h10" /><path d="M485.5 319h10" /><g class="non-terminal ">
<path d="M495.5 319h0.0" /><path d="M566.5 319h0.0" /><rect height="22" width="71" x="495.5" y="308"></rect><text x="531" y="323">number</text></g></g><path d="M566.5 319h20" /></g><path d="M586.5 319h10" /><g class="terminal ">
<path d="M596.5 319h0.0" /><path d="M625.0 319h0.0" /><rect height="22" rx="10" ry="10" width="28.5" x="596.5" y="308"></rect><text x="610.75" y="323">)</text></g></g><path d="M720.5 319a10 10 0 0 0 10 -10v-268a10 10 0 0 1 10 -10" /></g><path d="M 740.5 31 h 20 m -10 -10 v 20 m 10 -20 v 20"></path></g></svg>