<svg class="railroad-diagram" height="182" viewBox="0 0 300.5 182" width="300.5" xmlns="http://www.w3.org/2000/svg" xmlns:xlink="http://www.w3.org/1999/xlink">
<style>
.railroad-diagram path { stroke: #333; stroke-width: 2; fill: none; }
.railroad-diagram text { fill: #111; font: 14px monospace; text-anchor: middle; }
.railroad-diagram rect { fill: #fdfdfd; stroke: #333; }
.railroad-diagram .terminal rect { fill: #e8f2ea; }
.railroad-diagram .non-terminal rect { fill: #f2f2f2; }
</style>
<rect width="100%" height="100%" fill="white" />

<g transform="translate(.5 .5)">
<g>
<path d="M20 21v20m10 -20v20m-10 -10h20" /></g><path d="M40 31h10" /><g>
<path d="M50 31h0.0" /><path d="M250.5 31h0.0" /><g class="terminal ">
<path d="M50.0 31h0.0" /><path d="M104.0 31h0.0" /><rect height="22" rx="10" ry="10" width="54" x="50" y="20"></rect><text x="77" y="35">SHOW</text></g><path d="M104.0 31h10" /><g>
<path d="M114.0 31h0.0" /><path d="M250.5 31h0.0" /><path d="M114.0 31h20" /><g class="terminal ">
<path d="M134.0 31h17.0" /><path d="M213.5 31h17.0" /><rect height="22" rx="10" ry="10" width="62.5" x="151" y="20"></rect><text x="182.25" y="35">INPUT</text></g><path d="M230.5 31h20" /><path d="M114.0 31a10 10 0 0 1 10 10v10a10 10 0 0 0 10 10" /><g class="terminal ">
<path d="M134.0 61h12.75" /><path d="M217.75 61h12.75" /><rect height="22" rx="10" ry="10" width="71" x="146.75" y="50"></rect><text x="182.25" y="65">INPUTS</text></g><path d="M230.5 61a10 10 0 0 0 10 -10v-10a10 10 0 0 1 10 -10" /><path d="M114.0 31a10 10 0 0 1 10 10v40a10 10 0 0 0 10 10" /><g class="terminal ">
<path d="M134.0 91h0.0" /><path d="M230.5 91h0.0" /><rect height="22" rx="10" ry="10" width="96.5" x="134" y="80"></rect><text x="182.25" y="95">FUNCTIONS</text></g><path d="M230.5 91a10 10 0 0 0 10 -10v-40a10 10 0 0 1 10 -10" /><path d="M114.0 31a10 10 0 0 1 10 10v70a10 10 0 0 0 10 10" /><g class="terminal ">
<path d="M134.0 121h21.25" /><path d="M209.25 121h21.25" /><rect height="22" rx="10" ry="10" width="54" x="155.25" y="110"></rect><text x="182.25" y="125">AXES</text></g><path d="M230.5 121a10 10 0 0 0 10 -10v-70a10 10 0 0 1 10 -10" /><path d="M114.0 31a10 10 0 0 1 10 10v100a10 10 0 0 0 10 10" /><g class="terminal ">
<path d="M134.0 151h0.0" /><path d="M230.5 151h0.0" /><rect height="22" rx="10" ry="10" width="96.5" x="134" y="140"></rect><text x="182.25" y="155">OPERATORS</text></g><path d="M230.5 151a10 10 0 0 0 10 -10v-100a10 10 0 0 1 10 -10" /></g></g><path d="M250.5 31h10" /><path d="M 260.5 31 h 20 m -10 -10 v 20 m 10 -20 v 20"></path></g></svg>