<svg class="railroad-diagram" height="101" viewBox="0 0 236.5 101" width="236.5" xmlns="http://www.w3.org/2000/svg" xmlns:xlink="http://www.w3.org/1999/xlink">
<style>
.railroad-diagram path { stroke: #333; stroke-width: 2; fill: none; }
.railroad-diagram text { fill: #111; font: 14px monospace; text-anchor: middle; }
.railroad-diagram rect { fill: #fdfdfd; stroke: #333; }
.railroad-diagram .terminal rect { fill: #e8f2ea; }
.railroad-diagram .non-terminal rect { fill: #f2f2f2; }
</style>
<rect width="100%" height="100%" fill="white" />

<g transform="translate(.5 .5)">
<g>
<path d="M20 30v20m10 -20v20m-10 -10h20" /></g><g>
<path d="M40 40h0.0" /><path d="M196.5 40h0.0" /><path d="M40.0 40a10 10 0 0 0 10 -10v0a10 10 0 0 1 10 -10" /><g>
<path d="M60.0 20h116.5" /></g><path d="M176.5 20a10 10 0 0 1 10 10v0a10 10 0 0 0 10 10" /><path d="M40.0 40h20" /><g>
<path d="M60.0 40h0.0" /><path d="M176.5 40h0.0" /><path d="M60.0 40h10" /><g class="non-terminal ">
<path d="M70.0 40h0.0" /><path d="M166.5 40h0.0" /><rect height="22" width="96.5" x="70" y="29"></rect><text x="118.25" y="44">table_opt</text></g><path d="M166.5 40h10" /><path d="M70.0 40a10 10 0 0 0 -10 10v10a10 10 0 0 0 10 10" /><g class="terminal ">
<path d="M70.0 70h34.0" /><path d="M132.5 70h34.0" /><rect height="22" rx="10" ry="10" width="28.5" x="104" y="59"></rect><text x="118.25" y="74">,</text></g><path d="M166.5 70a10 10 0 0 0 10 -10v-10a10 10 0 0 0 -10 -10" /></g><path d="M176.5 40h20" /></g><path d="M 196.5 40 h 20 m -10 -10 v 20 m 10 -20 v 20"></path></g></svg>