<svg class="railroad-diagram" height="152" viewBox="0 0 512.5 152" width="512.5" xmlns="http://www.w3.org/2000/svg" xmlns:xlink="http://www.w3.org/1999/xlink">
<style>
.railroad-diagram path { stroke: #333; stroke-width: 2; fill: none; }
.railroad-diagram text { fill: #111; font: 14px monospace; text-anchor: middle; }
.railroad-diagram rect { fill: #fdfdfd; stroke: #333; }
.railroad-diagram .terminal rect { fill: #e8f2ea; }
.railroad-diagram .non-terminal rect { fill: #f2f2f2; }
</style>
<rect width="100%" height="100%" fill="white" />

<g transform="translate(.5 .5)">
<g>
<path d="M20 21v20m10 -20v20m-10 -10h20" /></g><g>
<path d="M40 31h0.0" /><path d="M472.5 31h0.0" /><path d="M40.0 31h20" /><g>
<path d="M60.0 31h92.25" /><path d="M360.25 31h92.25" /><g class="terminal ">
<path d="M152.25 31h0.0" /><path d="M189.25 31h0.0" /><rect height="22" rx="10" ry="10" width="37" x="152.25" y="20"></rect><text x="170.75" y="35">TO</text></g><path d="M189.25 31h10" /><path d="M199.25 31h10" /><g class="terminal ">
<path d="M209.25 31h0.0" /><path d="M263.25 31h0.0" /><rect height="22" rx="10" ry="10" width="54" x="209.25" y="20"></rect><text x="236.25" y="35">LIST</text></g><path d="M263.25 31h10" /><path d="M273.25 31h10" /><g class="terminal ">
<path d="M283.25 31h0.0" /><path d="M311.75 31h0.0" /><rect height="22" rx="10" ry="10" width="28.5" x="283.25" y="20"></rect><text x="297.5" y="35">(</text></g><path d="M311.75 31h10" /><path d="M321.75 31h10" /><g class="terminal ">
<path d="M331.75 31h0.0" /><path d="M360.25 31h0.0" /><rect height="22" rx="10" ry="10" width="28.5" x="331.75" y="20"></rect><text x="346" y="35">)</text></g></g><path d="M452.5 31h20" /><path d="M40.0 31a10 10 0 0 1 10 10v10a10 10 0 0 0 10 10" /><g>
<path d="M60.0 61h25.5" /><path d="M427.0 61h25.5" /><g class="terminal ">
<path d="M85.5 61h0.0" /><path d="M122.5 61h0.0" /><rect height="22" rx="10" ry="10" width="37" x="85.5" y="50"></rect><text x="104" y="65">TO</text></g><path d="M122.5 61h10" /><path d="M132.5 61h10" /><g class="terminal ">
<path d="M142.5 61h0.0" /><path d="M205.0 61h0.0" /><rect height="22" rx="10" ry="10" width="62.5" x="142.5" y="50"></rect><text x="173.75" y="65">TABLE</text></g><path d="M205.0 61h10" /><path d="M215.0 61h10" /><g class="terminal ">
<path d="M225.0 61h0.0" /><path d="M253.5 61h0.0" /><rect height="22" rx="10" ry="10" width="28.5" x="225" y="50"></rect><text x="239.25" y="65">(</text></g><path d="M253.5 61h10" /><path d="M263.5 61h10" /><g class="non-terminal ">
<path d="M273.5 61h0.0" /><path d="M378.5 61h0.0" /><rect height="22" width="105" x="273.5" y="50"></rect><text x="326" y="65">table_opts</text></g><path d="M378.5 61h10" /><path d="M388.5 61h10" /><g class="terminal ">
<path d="M398.5 61h0.0" /><path d="M427.0 61h0.0" /><rect height="22" rx="10" ry="10" width="28.5" x="398.5" y="50"></rect><text x="412.75" y="65">)</text></g></g><path d="M452.5 61a10 10 0 0 0 10 -10v-10a10 10 0 0 1 10 -10" /><path d="M40.0 31a10 10 0 0 1 10 10v40a10 10 0 0 0 10 10" /><g>
<path d="M60.0 91h17.0" /><path d="M435.5 91h17.0" /><g class="terminal ">
<path d="M77.0 91h0.0" /><path d="M114.0 91h0.0" /><rect height="22" rx="10" ry="10" width="37" x="77" y="80"></rect><text x="95.5" y="95">TO</text></g><path d="M114.0 91h10" /><path d="M124.0 91h10" /><g class="terminal ">
<path d="M134.0 91h0.0" /><path d="M179.5 91h0.0" /><rect height="22" rx="10" ry="10" width="45.5" x="134" y="80"></rect><text x="156.75" y="95">CSV</text></g><path d="M179.5 91h10" /><path d="M189.5 91h10" /><g class="terminal ">
<path d="M199.5 91h0.0" /><path d="M228.0 91h0.0" /><rect height="22" rx="10" ry="10" width="28.5" x="199.5" y="80"></rect><text x="213.75" y="95">(</text></g><path d="M228.0 91h10" /><path d="M238.0 91h10" /><g class="non-terminal ">
<path d="M248.0 91h0.0" /><path d="M387.0 91h0.0" /><rect height="22" width="139" x="248" y="80"></rect><text x="317.5" y="95">string_literal</text></g><path d="M387.0 91h10" /><path d="M397.0 91h10" /><g class="terminal ">
<path d="M407.0 91h0.0" /><path d="M435.5 91h0.0" /><rect height="22" rx="10" ry="10" width="28.5" x="407" y="80"></rect><text x="421.25" y="95">)</text></g></g><path d="M452.5 91a10 10 0 0 0 10 -10v-40a10 10 0 0 1 10 -10" /><path d="M40.0 31a10 10 0 0 1 10 10v70a10 10 0 0 0 10 10" /><g>
<path d="M60.0 121h0.0" /><path d="M452.5 121h0.0" /><g class="terminal ">
<path d="M60.0 121h0.0" /><path d="M97.0 121h0.0" /><rect height="22" rx="10" ry="10" width="37" x="60" y="110"></rect><text x="78.5" y="125">TO</text></g><path d="M97.0 121h10" /><path d="M107.0 121h10" /><g class="terminal ">
<path d="M117.0 121h0.0" /><path d="M196.5 121h0.0" /><rect height="22" rx="10" ry="10" width="79.5" x="117" y="110"></rect><text x="156.75" y="125">PARQUET</text></g><path d="M196.5 121h10" /><path d="M206.5 121h10" /><g class="terminal ">
<path d="M216.5 121h0.0" /><path d="M245.0 121h0.0" /><rect height="22" rx="10" ry="10" width="28.5" x="216.5" y="110"></rect><text x="230.75" y="125">(</text></g><path d="M245.0 121h10" /><path d="M255.0 121h10" /><g class="non-terminal ">
<path d="M265.0 121h0.0" /><path d="M404.0 121h0.0" /><rect height="22" width="139" x="265" y="110"></rect><text x="334.5" y="125">string_literal</text></g><path d="M404.0 121h10" /><path d="M414.0 121h10" /><g class="terminal ">
<path d="M424.0 121h0.0" /><path d="M452.5 121h0.0" /><rect height="22" rx="10" ry="10" width="28.5" x="424" y="110"></rect><text x="438.25" y="125">)</text></g></g><path d="M452.5 121a10 10 0 0 0 10 -10v-70a10 10 0 0 1 10 -10" /></g><path d="M 472.5 31 h 20 m -10 -10 v 20 m 10 -20 v 20"></path></g></svg>